<?xml version="1.0" encoding="utf-8"?>
<!-- Generator: Adobe Illustrator 15.1.0, SVG Export Plug-In . SVG Version: 6.00 Build 0)  -->
<!DOCTYPE svg PUBLIC "-//W3C//DTD SVG 1.1//EN" "http://www.w3.org/Graphics/SVG/1.1/DTD/svg11.dtd">
<svg version="1.1" id="Layer_1" xmlns="http://www.w3.org/2000/svg" xmlns:xlink="http://www.w3.org/1999/xlink" x="0px" y="0px"
	 width="2560px" height="1440px" viewBox="0 0 2560 1440" enable-background="new 0 0 2560 1440" xml:space="preserve">
<path fill="#0000FF" d="M1175.596,880.76c0.844,4.31-1.965,8.487-6.275,9.331l-636.024,124.512c-4.31,0.843-8.487-1.966-9.331-6.275
	L410.404,428.24c-0.844-4.31,1.966-8.487,6.275-9.331l636.024-124.512c4.31-0.844,8.487,1.966,9.331,6.275L1175.596,880.76z"/>
<g>
	<g>
		<path fill="#FFFFFF" stroke="#FFFFFF" stroke-miterlimit="10" d="M1005.25,456.874c-0.434-2.217-0.914-4.351-1.567-7.071
			l-1.559-6.412L758.929,491l-0.038-0.121l0.958,6.441c0.404,2.723,0.821,5.162,1.268,7.445c0.178,0.91,0.353,1.766,0.556,2.665
			c14.741,67.849,79.699,112.182,146.133,99.177C975.122,593.428,1018.831,526.247,1005.25,456.874z M774.859,501.977l0.225,1.146
			l215.901-42.266l-0.224-1.146c12.037,61.484-26.699,121.006-86.122,132.639C845.215,603.983,786.896,563.461,774.859,501.977z"/>
	</g>
	<g>
		<polygon fill="#FFFFFF" stroke="#FFFFFF" stroke-miterlimit="10" points="561.315,672.064 560.467,671.671 557.421,656.11 
			735.346,509.604 535.856,545.956 533.056,531.652 758.367,490.588 788.579,485.079 761.326,507.448 		"/>
	</g>
</g>
<circle fill="none" stroke="#FFFFFF" stroke-width="13" stroke-miterlimit="10" cx="815.831" cy="771.475" r="64.773"/>
<text transform="matrix(1 0 0 1 1249.5464 784.7031)" fill="#0000FF" font-family="'Arial'" font-size="443.5657">rant.</text>
</svg>
